<svg width="40" height="30" viewBox="0 0 40 30" fill="none" xmlns="http://www.w3.org/2000/svg">
<path fill-rule="evenodd" clip-rule="evenodd" d="M40 2.5C40 1.83696 39.699 1.20107 39.1632 0.732234C38.6273 0.263393 37.9006 0 37.1429 0H2.85714C2.09938 0 1.37265 0.263393 0.836834 0.732234C0.301014 1.20107 0 1.83696 0 2.5C0 3.16304 0.301014 3.79893 0.836834 4.26777C1.37265 4.73661 2.09938 5 2.85714 5H37.1429C37.9006 5 38.6273 4.73661 39.1632 4.26777C39.699 3.79893 40 3.16304 40 2.5ZM40 15C40 14.337 39.699 13.7011 39.1632 13.2322C38.6273 12.7634 37.9006 12.5 37.1429 12.5H2.85714C2.09938 12.5 1.37265 12.7634 0.836834 13.2322C0.301014 13.7011 0 14.337 0 15C0 15.663 0.301014 16.2989 0.836834 16.7678C1.37265 17.2366 2.09938 17.5 2.85714 17.5H37.1429C37.9006 17.5 38.6273 17.2366 39.1632 16.7678C39.699 16.2989 40 15.663 40 15ZM40 27.5C40 26.837 39.699 26.2011 39.1632 25.7322C38.6273 25.2634 37.9006 25 37.1429 25H20C19.2422 25 18.5155 25.2634 17.9797 25.7322C17.4439 26.2011 17.1429 26.837 17.1429 27.5C17.1429 28.163 17.4439 28.7989 17.9797 29.2678C18.5155 29.7366 19.2422 30 20 30H37.1429C37.9006 30 38.6273 29.7366 39.1632 29.2678C39.699 28.7989 40 28.163 40 27.5Z" fill="#3F70EF"/>
</svg>
