<svg width="160" height="26" viewBox="0 0 160 26" fill="none" xmlns="http://www.w3.org/2000/svg">
<path d="M0 13.0175C0 10.6099 0.628722 8.45933 1.88617 6.56592C3.17095 4.64913 4.90677 3.1648 7.09363 2.1129C9.30782 1.03763 11.7817 0.5 14.5153 0.5C17.7136 0.5 20.5155 1.20126 22.921 2.60379C25.3266 4.00631 27.0077 5.94647 27.9645 8.42426H21.3629C20.7068 7.25549 19.7774 6.37891 18.5746 5.79453C17.3992 5.21014 16.0324 4.91795 14.4743 4.91795C12.8068 4.91795 11.317 5.2569 10.0049 5.93478C8.7201 6.58929 7.70868 7.52431 6.97062 8.73983C6.25989 9.95535 5.90452 11.3813 5.90452 13.0175C5.90452 14.6304 6.25989 16.0563 6.97062 17.2952C7.70868 18.5108 8.7201 19.4575 10.0049 20.1353C11.317 20.7899 12.8068 21.1171 14.4743 21.1171C16.0324 21.1171 17.3992 20.8249 18.5746 20.2405C19.7774 19.6328 20.7068 18.7445 21.3629 17.5757H27.9645C27.0077 20.0769 25.3266 22.0288 22.921 23.4313C20.5428 24.8104 17.7409 25.5 14.5153 25.5C11.7817 25.5 9.30782 24.9741 7.09363 23.9222C4.90677 22.8469 3.17095 21.3626 1.88617 19.4691C0.628722 17.5757 0 15.4252 0 13.0175Z" fill="#3F70EF"/>
<path d="M38.6081 0.815568V25.2896H32.8676V3.77381L35.8261 0.815568H38.6081Z" fill="#3F70EF"/>
<path d="M42.8856 13.0175C42.8856 10.6099 43.5143 8.45933 44.7718 6.56592C46.0566 4.64913 47.7924 3.1648 49.9793 2.1129C52.1935 1.03763 54.6673 0.5 57.4009 0.5C60.5992 0.5 63.4011 1.20126 65.8067 2.60379C68.2122 4.00631 69.8934 5.94647 70.8501 8.42426H64.2485C63.5925 7.25549 62.663 6.37891 61.4603 5.79453C60.2848 5.21014 58.918 4.91795 57.3599 4.91795C55.6924 4.91795 54.2026 5.2569 52.8905 5.93478C51.6057 6.58929 50.5943 7.52431 49.8563 8.73983C49.1455 9.95535 48.7902 11.3813 48.7902 13.0175C48.7902 14.6304 49.1455 16.0563 49.8563 17.2952C50.5943 18.5108 51.6057 19.4575 52.8905 20.1353C54.2026 20.7899 55.6924 21.1171 57.3599 21.1171C58.918 21.1171 60.2848 20.8249 61.4603 20.2405C62.663 19.6328 63.5925 18.7445 64.2485 17.5757H70.8501C69.8934 20.0769 68.2122 22.0288 65.8067 23.4313C63.4284 24.8104 60.6265 25.5 57.4009 25.5C54.6673 25.5 52.1935 24.9741 49.9793 23.9222C47.7924 22.8469 46.0566 21.3626 44.7718 19.4691C43.5143 17.5757 42.8856 15.4252 42.8856 13.0175Z" fill="#3F70EF"/>
<path d="M91.7447 16.6992H83.4619L80.0176 25.2896H73.9901L84.282 0.780503H90.9656L101.257 25.2896H95.189L91.7447 16.6992ZM91.7447 16.6992L87.6033 6.46073L83.4619 16.6992H91.7447Z" fill="#3F70EF"/>
<path d="M115.109 0.815568C118.116 0.815568 120.754 1.31814 123.023 2.32328C125.319 3.32842 127.082 4.76601 128.313 6.63604C129.57 8.4827 130.199 10.6332 130.199 13.0877C130.199 15.5421 129.57 17.6926 128.313 19.5393C127.082 21.3626 125.319 22.7768 123.023 23.7819C120.754 24.7871 118.116 25.2896 115.109 25.2896H105.104V0.815568H115.109ZM114.904 21.1171C117.911 21.1171 120.235 20.4158 121.875 19.0133C123.515 17.6108 124.335 15.6356 124.335 13.0877C124.335 10.5397 123.515 8.55283 121.875 7.12693C120.235 5.67765 117.911 4.95301 114.904 4.95301H110.845V21.1171H114.904Z" fill="#3F70EF"/>
<path d="M150.487 16.6992H142.204L138.76 25.2896H132.733L143.025 0.780503H149.708L160 25.2896H153.931L150.487 16.6992ZM150.487 16.6992L146.346 6.46073L142.204 16.6992H150.487Z" fill="#3F70EF"/>
<path d="M87.6522 25.5L84.0375 20.1429H91.2669L87.6522 25.5Z" fill="#3F70EF"/>
<path d="M146.783 25.5L143.168 20.1429H150.397L146.783 25.5Z" fill="#3F70EF"/>
</svg>
